# xmcd
#
# Track frame offsets:
#	150
#	10365
#	29320
#	37847
#	51355
#	69304
#	87310
#	101633
#	130200
#	145153
#	155782
#	162463
#	171552
#	182992
#	196759
#	209230
#	215305
#	223071
#
# Disc length: 3047 seconds
#
# Revision: 0
# Processed by: cddbd v1.5.2PL0 Copyright (c) Steve Scherf et al.
# Submitted via: EZCDAudioConverter 1.3.4.1
#
DISCID=140be512
DTITLE=Davy Graham - A Scholar and A Gentleman 2/2
DYEAR=2009
DGENRE=Jazz
TTITLE0=No Preacher Blues
TTITLE1=The Fakir
TTITLE2=Fire In My Soul
TTITLE3=Watermelon Man
TTITLE4=Bruton Town
TTITLE5=Tristano
TTITLE6=Jenra
TTITLE7=Sunshine Raga
TTITLE8=Bulgarian Dance
TTITLE9=Stan's Guitar
TTITLE10=Hornpipe For Harpsichord Played Upon Guitar
TTITLE11=Getting Better
TTITLE12=Buhaina Chant
TTITLE13=Sunny Moon For Two
TTITLE14=Charlie
TTITLE15=Ramblin' Sailor
TTITLE16=Everything's Fine Right Now
TTITLE17=Forty Ton Parachute
EXTD=
EXTT0=
EXTT1=
EXTT2=
EXTT3=
EXTT4=
EXTT5=
EXTT6=
EXTT7=
EXTT8=
EXTT9=
EXTT10=
EXTT11=
EXTT12=
EXTT13=
EXTT14=
EXTT15=
EXTT16=
EXTT17=
PLAYORDER=
